<?xml version="1.0" standalone="no"?>
<!DOCTYPE svg PUBLIC "-//W3C//DTD SVG 20010904//EN"
 "http://www.w3.org/TR/2001/REC-SVG-20010904/DTD/svg10.dtd">
<svg version="1.0" xmlns="http://www.w3.org/2000/svg"
 width="800.000000pt" height="600.000000pt" viewBox="0 0 800.000000 600.000000"
 preserveAspectRatio="xMidYMid meet">

<g transform="translate(0.000000,600.000000) scale(0.100000,-0.100000)"
fill="#000000" stroke="none">
<path d="M3479 4906 l-66 -265 29 -6 c16 -4 32 -5 35 -2 7 8 135 519 130 523
-2 2 -17 6 -33 10 l-29 5 -66 -265z"/>
<path d="M1560 4900 l0 -240 35 0 35 0 0 110 0 110 120 0 120 0 0 -111 0 -110
33 3 32 3 3 238 2 237 -35 0 -35 0 0 -100 0 -100 -120 0 -120 0 0 100 0 100
-35 0 -35 0 0 -240z"/>
<path d="M2010 5110 l0 -30 70 0 70 0 0 -210 0 -210 35 0 35 0 0 210 0 210 70
0 70 0 0 30 0 30 -175 0 -175 0 0 -30z"/>
<path d="M2442 4903 l3 -238 32 -3 33 -3 2 177 3 178 84 -132 c46 -73 86 -132
90 -132 3 0 42 57 86 127 l80 127 5 -170 5 -169 33 -3 32 -3 0 240 0 241 -34
0 c-34 0 -37 -4 -118 -135 -46 -74 -86 -135 -89 -135 -3 0 -44 61 -90 135 -84
135 -84 135 -122 135 l-37 0 2 -237z"/>
<path d="M3040 4900 l0 -240 150 0 150 0 0 30 0 30 -115 0 -115 0 0 210 0 210
-35 0 -35 0 0 -240z"/>
<path d="M3850 5129 c-44 -18 -89 -59 -117 -106 -38 -66 -39 -166 -3 -238 63
-123 229 -161 338 -79 l33 26 -25 19 c-25 19 -25 19 -63 -7 -32 -22 -46 -25
-91 -22 -64 6 -99 29 -129 88 -44 85 -18 198 57 248 45 30 130 28 177 -6 l30
-21 21 22 21 22 -32 22 c-18 12 -45 27 -60 32 -35 13 -123 13 -157 0z"/>
<path d="M4285 5133 c-52 -14 -95 -66 -95 -118 0 -63 38 -98 155 -140 65 -24
95 -51 95 -87 0 -34 -48 -68 -95 -68 -36 0 -89 31 -105 60 -10 19 -13 19 -40
5 -29 -15 -29 -17 -15 -39 48 -73 157 -104 238 -68 55 24 82 63 82 117 0 61
-27 89 -125 130 -100 43 -120 59 -120 96 0 36 33 59 83 59 30 0 46 -7 69 -31
27 -27 36 -30 60 -22 l29 8 -23 35 c-39 58 -115 83 -193 63z"/>
<path d="M4675 5126 c-87 -38 -105 -140 -35 -199 16 -14 59 -35 94 -47 112
-37 139 -79 86 -131 -28 -28 -36 -31 -76 -26 -34 3 -55 13 -80 38 -30 29 -36
31 -59 21 -32 -15 -32 -22 8 -60 81 -79 201 -81 267 -5 24 27 30 43 30 80 0
39 -5 50 -33 77 -18 17 -64 42 -102 55 -72 26 -115 58 -115 86 0 31 46 65 88
65 38 0 92 -34 92 -59 0 -5 12 -5 30 2 17 6 30 15 30 18 0 15 -53 70 -81 84
-35 18 -104 19 -144 1z"/>
<path d="M3520 4115 l0 -275 35 0 35 0 0 135 0 135 46 0 c44 0 45 1 42 28 -3
24 -7 27 -45 30 l-43 3 0 110 0 109 -35 0 -35 0 0 -275z"/>
<path d="M4070 4115 l0 -275 35 0 35 0 0 135 0 135 45 0 c43 0 45 1 45 30 0
29 -2 30 -45 30 l-45 0 0 110 0 110 -35 0 -35 0 0 -275z"/>
<path d="M5750 4230 l0 -160 35 0 35 0 0 160 0 160 -35 0 -35 0 0 -160z"/>
<path d="M5370 4330 l0 -30 95 0 c95 0 95 0 95 -25 0 -25 0 -25 -95 -25 l-95
0 0 -85 0 -86 143 3 142 3 3 28 3 27 -105 0 -106 0 0 30 0 30 90 0 90 0 0 80
0 80 -130 0 -130 0 0 -30z"/>
<path d="M4468 4288 l-3 -63 -92 -61 c-98 -66 -96 -63 -56 -113 2 -2 43 23 92
57 49 34 92 62 95 62 3 0 45 -27 93 -60 l88 -60 18 22 c10 11 16 25 15 29 -2
5 -41 34 -88 66 l-85 58 -3 63 -3 62 -34 0 -34 0 -3 -62z"/>
<path d="M3160 4310 c0 -30 1 -30 55 -30 l55 0 0 -53 c0 -50 -3 -57 -67 -136
l-66 -83 24 -19 c27 -21 26 -22 109 80 l36 44 57 -72 c57 -70 58 -71 82 -55
14 9 25 19 25 21 0 3 -29 41 -65 85 -62 76 -65 82 -65 134 l0 54 55 0 c54 0
55 0 55 30 l0 30 -145 0 -145 0 0 -30z"/>
<path d="M3720 4155 l0 -185 140 0 140 0 0 185 0 185 -35 0 -34 0 -3 -67 -3
-68 -67 -3 -68 -3 0 71 0 70 -35 0 -35 0 0 -185z m208 -67 l3 -58 -71 0 -70 0
0 60 0 61 68 -3 67 -3 3 -57z"/>
<path d="M5970 4195 l0 -145 185 0 185 0 0 25 0 25 -151 0 -150 0 3 33 3 32
148 3 147 3 0 24 0 25 -150 0 -150 0 0 30 0 30 150 0 150 0 0 30 0 30 -185 0
-185 0 0 -145z"/>
<path d="M4850 4300 l0 -30 155 0 155 0 0 -40 0 -40 -155 0 -155 0 0 -30 0
-30 155 0 155 0 0 -60 0 -60 35 0 35 0 0 93 c0 50 3 122 7 160 l6 67 -197 0
-196 0 0 -30z"/>
<path d="M5462 3938 l3 -113 178 -3 177 -2 0 115 0 115 -35 0 c-32 0 -35 -2
-35 -30 l0 -30 -110 0 -110 0 0 30 c0 28 -3 30 -35 30 l-36 0 3 -112z m288
-28 l0 -30 -110 0 c-109 0 -110 0 -110 23 0 13 3 27 7 30 3 4 53 7 110 7 l103
0 0 -30z"/>
<path d="M4250 3940 l0 -30 255 0 255 0 0 30 0 30 -255 0 -255 0 0 -30z"/>
<path d="M4800 3940 l0 -30 255 0 255 0 0 30 0 30 -255 0 -255 0 0 -30z"/>
<path d="M5900 3935 l0 -25 260 0 260 0 0 25 0 25 -260 0 -260 0 0 -25z"/>
<path d="M2660 3315 l0 -275 40 0 40 0 0 275 0 275 -40 0 -40 0 0 -275z"/>
<path d="M3230 3520 c0 -68 -1 -70 -25 -70 -24 0 -25 2 -25 65 l0 65 -35 0
-35 0 0 -165 0 -165 35 0 35 0 0 70 c0 68 1 70 25 70 24 0 25 -2 25 -70 l0
-70 35 0 35 0 0 170 0 170 -35 0 -35 0 0 -70z"/>
<path d="M2893 3545 c-44 -19 -73 -69 -73 -125 0 -57 16 -88 59 -117 39 -26
77 -29 126 -9 99 42 100 203 2 249 -42 20 -71 21 -114 2z m101 -64 c67 -74
-19 -187 -91 -119 -29 27 -30 76 -2 112 25 31 68 35 93 7z"/>
<path d="M2300 3510 l0 -30 95 0 95 0 0 -50 0 -50 -95 0 -95 0 0 -110 0 -110
43 0 c24 0 92 3 150 7 l107 6 0 29 0 29 -115 -7 -115 -7 0 52 0 51 95 0 95 0
0 110 0 110 -130 0 -130 0 0 -30z"/>
<path d="M3440 3395 l0 -145 185 0 185 0 0 25 0 25 -150 0 -150 0 0 35 0 35
150 0 150 0 0 25 0 25 -150 0 -150 0 0 30 0 30 150 0 150 0 0 30 0 30 -185 0
-185 0 0 -145z"/>
<path d="M2930 3190 l0 -30 150 0 150 0 0 -70 0 -70 35 0 35 0 0 100 0 100
-185 0 -185 0 0 -30z"/>
<path d="M3360 3135 l0 -25 260 0 260 0 0 25 0 25 -260 0 -260 0 0 -25z"/>
<path d="M3550 2515 l0 -275 35 0 35 0 0 275 0 275 -35 0 -35 0 0 -275z"/>
<path d="M4650 2645 l0 -145 35 0 35 0 0 145 0 145 -35 0 -35 0 0 -145z"/>
<path d="M4338 2759 c-46 -24 -68 -64 -68 -124 0 -37 6 -52 34 -82 30 -33 39
-37 93 -41 71 -5 114 13 143 61 27 43 25 96 -3 138 -44 66 -128 86 -199 48z
m131 -65 c28 -36 27 -79 -4 -109 -58 -59 -153 4 -124 83 21 58 92 72 128 26z"/>
<path d="M3180 2710 l0 -30 100 0 100 0 0 -50 0 -50 -100 0 -100 0 0 -110 0
-110 43 0 c23 0 93 3 155 7 l112 6 0 29 0 29 -120 -7 -120 -7 0 52 0 51 100 0
100 0 0 110 0 110 -135 0 -135 0 0 -30z"/>
<path d="M3750 2705 l0 -25 155 0 155 0 0 -35 0 -35 -155 0 -155 0 0 -30 0
-30 155 0 155 0 0 -60 0 -60 35 0 35 0 0 119 c0 65 3 133 6 150 l7 31 -197 0
-196 0 0 -25z"/>
<path d="M3900 2425 l0 -55 -100 0 -100 0 0 -30 0 -30 255 0 255 0 0 30 0 30
-120 0 -120 0 0 55 0 55 -35 0 -35 0 0 -55z"/>
<path d="M4360 2450 l0 -30 145 0 c138 0 145 -1 145 -20 0 -19 -7 -20 -145
-20 l-145 0 0 -80 0 -80 185 0 185 0 0 30 0 30 -150 0 -150 0 0 25 0 25 145 0
145 0 0 75 0 75 -180 0 -180 0 0 -30z"/>
<path d="M1930 1725 l0 -275 35 0 35 0 0 275 0 275 -35 0 -35 0 0 -275z"/>
<path d="M2500 1930 l0 -70 -30 0 -30 0 0 65 0 65 -30 0 -30 0 0 -165 0 -165
30 0 30 0 0 70 0 70 30 0 30 0 0 -70 0 -70 30 0 30 0 0 170 0 170 -30 0 -30 0
0 -70z"/>
<path d="M3730 1815 l0 -185 -60 0 -60 0 0 -30 0 -30 60 0 60 0 0 -60 0 -60
35 0 35 0 0 275 0 275 -35 0 -35 0 0 -185z"/>
<path d="M4280 1725 l0 -275 35 0 35 0 0 275 0 275 -35 0 -35 0 0 -275z"/>
<path d="M2149 1951 c-120 -65 -70 -261 66 -261 37 0 88 30 111 65 21 33 22
117 0 150 -39 59 -116 79 -177 46z m108 -63 c47 -44 19 -138 -41 -138 -43 0
-71 33 -70 81 2 71 63 103 111 57z"/>
<path d="M3360 1930 l0 -30 105 0 c98 0 105 -1 105 -20 0 -19 -7 -20 -105 -20
l-105 0 0 -30 0 -30 105 0 105 0 0 -35 0 -35 -120 0 -120 0 0 -30 0 -30 65 0
64 0 3 -97 3 -98 33 -3 32 -3 0 100 0 100 78 3 c76 3 77 3 80 31 3 23 0 27
-22 27 l-26 0 0 115 0 115 -140 0 -140 0 0 -30z"/>
<path d="M1560 1920 l0 -30 100 0 100 0 0 -50 0 -50 -100 0 -100 0 0 -110 0
-110 43 0 c23 0 93 3 155 7 l112 6 0 29 0 29 -120 -7 -120 -7 0 52 0 51 100 0
100 0 0 110 0 110 -135 0 -135 0 0 -30z"/>
<path d="M2700 1805 l0 -145 185 0 185 0 0 25 0 25 -151 0 -150 0 3 33 3 32
148 3 147 3 0 24 0 25 -150 0 -150 0 0 30 0 30 150 0 150 0 0 30 0 30 -185 0
-185 0 0 -145z"/>
<path d="M3910 1920 l0 -30 100 0 100 0 0 -50 0 -50 -100 0 -100 0 0 -110 0
-110 43 0 c23 0 93 3 155 7 l112 6 0 29 0 29 -120 -7 -120 -7 0 51 0 51 98 3
97 3 3 108 3 107 -136 0 -135 0 0 -30z"/>
<path d="M2190 1600 l0 -30 150 0 150 0 0 -70 0 -70 35 0 35 0 0 100 0 100
-185 0 -185 0 0 -30z"/>
<path d="M2630 1545 l0 -25 260 0 260 0 0 25 0 25 -260 0 -260 0 0 -25z"/>
<path d="M3080 925 l0 -275 35 0 35 0 0 135 0 135 40 0 c38 0 40 2 40 30 0 28
-2 30 -40 30 l-40 0 0 110 0 110 -35 0 -35 0 0 -275z"/>
<path d="M3650 1045 l0 -155 40 0 40 0 0 155 0 155 -40 0 -40 0 0 -155z"/>
<path d="M5310 1040 l0 -160 35 0 35 0 0 160 0 160 -35 0 -35 0 0 -160z"/>
<path d="M3353 1161 c-88 -40 -105 -157 -33 -226 29 -27 38 -30 100 -30 62 0
72 3 99 29 77 74 57 191 -39 230 -52 21 -75 20 -127 -3z m122 -66 c32 -31 32
-75 2 -111 -62 -72 -167 9 -123 94 25 49 82 57 121 17z"/>
<path d="M4930 1140 l0 -30 95 0 c95 0 95 0 95 -25 0 -25 0 -25 -95 -25 l-95
0 0 -85 0 -86 143 3 142 3 3 28 3 27 -111 0 -111 0 3 28 3 27 93 3 92 3 0 79
0 80 -130 0 -130 0 0 -30z"/>
<path d="M4028 1098 l-3 -63 -92 -61 c-99 -66 -96 -60 -57 -112 1 -2 43 24 93
57 50 34 92 61 95 61 2 0 44 -27 92 -60 l89 -61 18 22 c9 12 17 25 17 29 0 4
-30 27 -67 51 -109 69 -113 74 -113 141 l0 58 -35 0 -34 0 -3 -62z"/>
<path d="M2730 970 l0 -180 145 0 145 0 0 30 0 30 -110 0 -110 0 0 45 0 45 90
0 90 0 0 30 0 30 -90 0 -90 0 0 45 0 45 100 0 100 0 0 30 0 30 -135 0 -135 0
0 -180z"/>
<path d="M5530 1005 l0 -145 185 0 185 0 0 25 0 25 -150 0 -150 0 0 35 0 35
150 0 150 0 0 25 0 25 -150 0 -150 0 0 30 0 30 150 0 150 0 0 30 0 30 -185 0
-185 0 0 -145z"/>
<path d="M4410 1110 l0 -30 155 0 155 0 0 -40 0 -40 -155 0 -155 0 0 -30 0
-30 155 0 155 0 0 -60 0 -60 35 0 34 0 3 160 3 160 -192 0 -193 0 0 -30z"/>
<path d="M3372 753 l3 -118 175 0 175 0 3 118 3 117 -36 0 c-32 0 -35 -2 -35
-30 l0 -30 -110 0 -110 0 0 30 c0 28 -3 30 -35 30 l-36 0 3 -117z m286 -30
l-3 -28 -105 0 -105 0 -3 28 -3 27 111 0 111 0 -3 -27z"/>
<path d="M5020 745 l0 -115 180 0 180 0 0 115 0 115 -35 0 c-32 0 -35 -2 -35
-30 l0 -30 -110 0 -110 0 0 30 c0 28 -3 30 -35 30 l-35 0 0 -115z m288 -27 l3
-28 -110 0 -111 0 0 30 0 31 108 -3 107 -3 3 -27z"/>
<path d="M3800 750 l0 -30 260 0 260 0 0 30 0 30 -260 0 -260 0 0 -30z"/>
<path d="M4360 750 l0 -30 255 0 255 0 0 30 0 30 -255 0 -255 0 0 -30z"/>
<path d="M5460 745 l0 -25 255 0 255 0 0 25 0 25 -255 0 -255 0 0 -25z"/>
</g>
</svg>
